<svg width="38" height="38" viewBox="0 0 38 38" fill="none" xmlns="http://www.w3.org/2000/svg">
<path fill-rule="evenodd" clip-rule="evenodd" d="M22.1667 9.50008C22.1667 9.95517 22.2147 10.399 22.3059 10.8269L14.2768 14.8414C13.1158 13.5089 11.4062 12.6667 9.50002 12.6667C6.00222 12.6667 3.16669 15.5023 3.16669 19.0001C3.16669 22.4979 6.00222 25.3334 9.50002 25.3334C11.4062 25.3334 13.1158 24.4913 14.2768 23.1587L22.3059 27.1732C22.2147 27.6011 22.1667 28.045 22.1667 28.5001C22.1667 31.9979 25.0022 34.8334 28.5 34.8334C31.9978 34.8334 34.8334 31.9979 34.8334 28.5001C34.8334 25.0023 31.9978 22.1667 28.5 22.1667C26.5938 22.1667 24.8843 23.0089 23.7232 24.3414L15.6941 20.3269C15.7854 19.899 15.8334 19.4552 15.8334 19.0001C15.8334 18.545 15.7854 18.1011 15.6941 17.6732L23.7232 13.6587C24.8843 14.9913 26.5938 15.8334 28.5 15.8334C31.9978 15.8334 34.8334 12.9979 34.8334 9.50008C34.8334 6.00228 31.9978 3.16675 28.5 3.16675C25.0022 3.16675 22.1667 6.00228 22.1667 9.50008ZM12.6667 19.0001C12.6667 20.749 11.2489 22.1667 9.50002 22.1667C7.75112 22.1667 6.33335 20.749 6.33335 19.0001C6.33335 17.2512 7.75112 15.8334 9.50002 15.8334C11.2489 15.8334 12.6667 17.2512 12.6667 19.0001ZM28.5 12.6667C30.2489 12.6667 31.6667 11.249 31.6667 9.50008C31.6667 7.75118 30.2489 6.33341 28.5 6.33341C26.7511 6.33341 25.3334 7.75118 25.3334 9.50008C25.3334 11.249 26.7511 12.6667 28.5 12.6667ZM31.6667 28.5001C31.6667 30.249 30.2489 31.6667 28.5 31.6667C26.7511 31.6667 25.3334 30.249 25.3334 28.5001C25.3334 26.7512 26.7511 25.3334 28.5 25.3334C30.2489 25.3334 31.6667 26.7512 31.6667 28.5001Z" fill="#0085FF"/>
</svg>
